In Star Trek: Generations, it's the 23rd century, and retired Starfleet officers James T. Kirk (William Shatner), Montgomery Scott (James Doohan) and Pavel Chekov (Walter Koenig) are guests of honor aboard the newly christened Enterprise-B. A test run takes an unexpected turn, however, when the starship encounters two vessels trapped inside the Nexus, a mysterious energy ribbon. During a perilous rescue attempt, Kirk is swept out into space. Seven decades later, Captain Jean-Luc Picard (Patrick Stewart) and the crew of the Enterprise-D rescue an El Aurian physicist named Soran (Malcolm McDowell). Unbeknownst to Picard, Soran harbors a deadly plan that includes the destruction of the Enterprise and millions of lives. Now Picard's only hope for a future rests within the Nexus...and a legendary captain from the past. 



Format                           : AVI
Format/Info                      : Audio Video Interleave
File size                        : 701 MiB
Duration                         : 1h 57mn
Overall bit rate                 : 831 Kbps
Writing application              : VirtualDubMod 1.5.4.1 (build 2178/release)
Writing library                  : VirtualDubMod build 2178/release

Video
Format                           : MPEG-4 Visual
Format profile                   : Streaming Video@L1
Format settings, BVOP            : Yes
Format settings, QPel            : No
Format settings, GMC             : No warppoints
Format settings, Matrix          : Custom
Codec ID                         : XVID
Codec ID/Hint                    : XviD
Duration                         : 1h 57mn
Bit rate                         : 694 Kbps
Width                            : 608 pixels
Height                           : 272 pixels
Display aspect ratio             : 2.25
Frame rate                       : 23.976 fps
Resolution                       : 24 bits
Colorimetry                      : 4:2:0
Scan type                        : Progressive
Bits/(Pixel*Frame)               : 0.175
Stream size                      : 585 MiB (83%)
Writing library                  : XviD 1.0.2 (UTC 2004-08-29)

Audio
Format                           : MPEG Audio
Format version                   : Version 1
Format profile                   : Layer 3
Codec ID                         : 55
Codec ID/Hint                    : MP3
Duration                         : 1h 57mn
Bit rate mode                    : Variable
Bit rate                         : 125 Kbps
Nominal bit rate                 : 128 Kbps
Channel(s)                       : 2 channels
Sampling rate                    : 48.0 KHz
Resolution                       : 16 bits
Stream size                      : 105 MiB (15%)
Alignment                        : Aligned on interleaves
Interleave, duration             : 24 ms (0.58 video frame)
Interleave, preload duration     : 514 ms
Writing library                  : LAME3.90.
Encoding settings                : -m j -V 4 -q 2 -lowpass 17.6 --abr 128
Language                         : English